<?xml version="1.0" encoding="UTF-8" standalone="no"?>
<!DOCTYPE svg PUBLIC "-//W3C//DTD SVG 1.1//EN" "http://www.w3.org/Graphics/SVG/1.1/DTD/svg11.dtd">
<!-- Created with Vectornator (http://vectornator.io/) -->
<svg height="100%" stroke-miterlimit="10" style="fill-rule:nonzero;clip-rule:evenodd;stroke-linecap:round;stroke-linejoin:round;" version="1.1" viewBox="0 0 1500 1500" width="100%" xml:space="preserve" xmlns="http://www.w3.org/2000/svg" xmlns:vectornator="http://vectornator.io" xmlns:xlink="http://www.w3.org/1999/xlink">
<defs/>
<g id="Layer-1" vectornator:layerName="Layer 1">
<g opacity="1" vectornator:layerName="Group 1">
<path d="M812.702 114.873C812.702 116.797 824.046 138.147 839.955 155.9C856.317 174.16 877.281 188.804 879.039 188.364C882.508 187.497 900.917 169.485 914.357 156.044C927.798 142.604 944.943 121.16 944.076 116.824C943.592 114.405 933.814 95.4316 918.288 76.5492C905.989 61.5925 887.459 45.6676 885.543 45.2843C883.543 44.8843 864.487 54.584 848.202 70.1086C829.182 88.2399 812.702 112.771 812.702 114.873ZM1117.72 61.5433C1110.35 68.047 1100.81 78.0192 1089.11 91.46C1077.4 104.901 1070.68 112.922 1068.95 115.523C1067.21 118.125 1066.13 120.943 1065.69 123.978C1065.26 127.013 1065.69 129.398 1066.99 131.132C1068.29 132.866 1075.67 137.202 1089.11 144.139C1102.55 151.077 1114.25 159.531 1124.23 169.503C1134.2 179.476 1143.09 191.182 1150.89 204.623C1158.7 218.064 1164.55 230.421 1168.45 241.694C1172.35 252.967 1175.39 263.589 1177.56 273.561C1179.72 283.534 1181.67 305.212 1183.41 338.598C1185.14 371.983 1185.36 401.466 1184.06 427.047C1182.76 452.628 1181.02 472.139 1178.86 485.58C1176.69 499.02 1174.52 518.531 1172.35 544.112C1170.18 569.693 1169.32 593.323 1169.75 615.002C1170.18 636.68 1171.27 653.807 1173 666.38C1174.74 678.954 1178.42 693.045 1184.06 708.654C1189.7 724.262 1195.98 737.27 1202.92 747.675C1209.86 758.081 1220.05 767.837 1233.49 776.942C1246.93 786.047 1263.62 793.201 1270.56 793.201C1277.49 793.201 1290.94 782.361 1310.88 760.683C1330.82 739.004 1341.01 726.214 1341.45 722.311C1341.88 718.409 1341.23 715.374 1339.5 713.206C1337.76 711.038 1334.51 709.521 1329.74 708.654C1324.97 707.787 1319.55 705.619 1313.48 702.15C1307.41 698.682 1299.61 692.178 1290.07 682.639C1280.53 673.101 1273.38 664.646 1268.61 657.275C1263.84 649.904 1259.93 642.317 1256.9 634.512C1253.86 626.708 1251.48 618.687 1249.75 610.449C1248.01 602.211 1246.28 590.721 1244.54 575.98C1242.81 561.238 1241.94 542.378 1241.94 519.398C1241.94 496.419 1244.33 463.901 1249.1 421.844C1253.86 379.787 1256.68 348.136 1257.55 326.891C1258.42 305.646 1258.42 284.184 1257.55 262.505C1256.68 240.827 1245.84 180.56 1240.64 164.951C1235.44 149.342 1227.63 133.3 1217.23 116.824C1206.82 100.348 1183.84 75.8513 1174.3 69.3477C1164.77 62.8441 1156.53 58.2915 1149.59 55.6901C1142.65 53.0886 1137.45 51.7879 1133.98 51.7879C1130.51 51.7879 1125.09 55.0397 1117.72 61.5433ZM923.914 181.21C914.809 188.581 905.054 197.686 894.648 208.525C884.242 219.365 877.522 224.567 874.487 224.134C871.452 223.7 867.55 221.099 862.78 216.33C858.011 211.56 851.507 203.322 843.269 191.616C835.032 179.909 828.745 173.622 824.409 172.755C822.205 172.314 802.586 181.923 786.07 196.372C770.094 210.347 753.086 237.575 753.519 242.344C753.953 247.113 757.638 254.701 764.576 265.107C771.513 275.513 780.835 286.785 792.541 298.926C804.248 311.066 811.402 317.136 814.003 317.136C816.605 317.136 820.724 315.185 826.36 311.282C828.761 309.62 839.704 303.684 850.689 293.673C865.49 280.185 881.047 262.008 882.291 262.505C882.291 262.505 895.949 278.764 908.956 293.072C921.963 307.38 930.418 314.751 934.32 315.185C938.222 315.618 948.628 308.031 965.538 292.422C982.447 276.813 1003.39 251.187 1003.91 248.848C1004.78 244.945 1003.91 240.827 1001.31 236.491C998.706 232.155 990.902 222.616 977.894 207.875C964.887 193.133 945.16 170.154 942.124 170.154C939.089 170.154 933.019 173.839 923.914 181.21ZM1051.39 278.114C1047.48 280.715 1039.9 288.086 1028.62 300.226C1017.35 312.366 1009.11 321.471 1003.91 327.541C998.706 333.612 995.237 339.031 993.503 343.801C991.769 348.57 993.937 362.011 1000.01 384.123C1006.08 406.235 1011.71 423.145 1016.92 434.851C1019.43 440.509 1032.51 478.561 1032.51 478.561C1032.51 478.561 1045.94 519.47 1046.83 523.951C1048.57 532.622 1049.87 545.846 1050.73 563.623C1051.6 581.4 1050.95 595.708 1048.78 606.547C1046.62 617.386 1044.66 624.323 1042.93 627.358C1041.2 630.394 1039.03 631.477 1036.43 630.61C1033.83 629.743 1031.22 626.275 1028.62 620.204C1026.02 614.134 1018 591.372 1004.56 551.916C991.118 512.461 973.992 442.439 968.789 414.69C963.586 386.941 961.419 350.087 959.684 348.353C957.95 346.619 955.782 345.968 953.181 346.402C950.579 346.836 947.978 348.353 945.376 350.955C942.775 353.556 905.704 394.746 899.201 404.284C892.697 413.823 889.662 429.865 890.096 452.411C890.529 474.957 894.431 502.055 901.802 533.706C909.173 565.357 912.858 585.085 912.858 592.889C912.858 596.619 914.994 609.505 912.961 620.68C910.74 632.888 895.949 659.226 893.347 659.226C890.746 659.226 888.578 658.359 886.844 656.625C885.109 654.89 878.172 642.317 866.032 618.904C853.892 595.491 844.787 574.679 838.717 556.469C832.647 538.259 828.311 522.433 825.71 508.993C823.108 495.552 821.591 478.426 821.157 457.614C820.724 436.802 822.024 419.893 825.059 406.886C828.094 393.878 831.996 382.605 836.766 373.067C841.535 363.528 843.703 357.241 843.269 354.206C843.053 352.689 842.836 351.171 842.619 349.654C840.885 350.087 839.15 350.521 837.416 350.955C833.948 351.822 829.829 354.64 825.059 359.409C820.29 364.179 814.003 369.165 806.199 374.368C798.394 379.57 786.254 386.074 769.779 393.878C753.303 401.683 738.778 406.886 726.204 409.487C713.631 412.089 701.924 413.389 691.085 413.389C680.245 413.389 669.406 411.872 658.567 408.837C647.727 405.802 636.888 401.466 626.048 395.83C615.209 390.193 600.901 381.088 583.125 368.514C565.348 355.941 550.173 343.801 537.599 332.094C525.026 320.388 511.585 304.779 507.683 303.478C503.78 302.177 467.794 400.599 467.36 406.235C466.926 411.872 476.032 423.145 494.675 440.054C513.319 456.964 527.193 471.272 536.298 482.978C545.404 494.685 552.558 504.223 557.76 511.594C562.963 518.965 569.033 529.587 575.971 543.462C582.908 557.336 587.46 568.176 589.628 575.98C591.796 583.784 593.53 591.805 594.831 600.043C596.132 608.281 596.999 623.24 597.433 644.918C597.866 666.597 597.433 684.374 596.132 698.248C594.831 712.122 592.88 725.13 590.279 737.27C588.853 743.923 584.562 759.916 581.946 772.776C579.789 783.381 574.422 808.456 573.369 815.313C572.329 822.082 570.965 829.296 574.902 834.767C578.347 839.553 583.341 842.412 592.88 841.978C602.419 841.544 693.469 839.593 717.75 838.726C742.03 837.859 774.114 837.642 814.003 838.076C853.892 838.509 893.131 840.461 931.719 843.929C970.307 847.398 994.587 850.433 1004.56 853.034C1010.48 854.579 1089.49 871.151 1101.46 874.496C1130.95 882.734 1156.74 891.839 1178.86 901.811C1200.97 911.784 1223.73 924.574 1247.14 940.183C1270.56 955.791 1288.98 970.316 1302.43 983.757C1315.87 997.198 1326.05 1008.47 1332.99 1017.58C1339.93 1026.68 1358.36 1056.6 1364.86 1070.91C1371.36 1085.21 1376.13 1097.14 1379.17 1106.68C1382.2 1116.21 1389.36 1157.62 1390.22 1171.06C1391.09 1184.5 1390.22 1199.03 1387.62 1214.64C1386.48 1221.5 1380.23 1259.8 1362.79 1291.86C1340.57 1332.69 1306.16 1368.37 1305.68 1370.07C1304.81 1373.11 1305.03 1374.84 1306.33 1375.28C1307.63 1375.71 1312.4 1373.76 1320.64 1369.42C1328.87 1365.09 1339.06 1358.58 1351.2 1349.91C1363.34 1341.24 1375.7 1330.83 1388.27 1318.69C1400.85 1306.55 1410.39 1296.58 1416.89 1288.78C1423.39 1280.97 1432.28 1267.75 1443.55 1249.1C1454.83 1230.46 1463.06 1213.77 1468.27 1199.03C1473.47 1184.29 1476.72 1173.01 1478.02 1165.21C1478.65 1161.43 1480.97 1146.52 1481.41 1130.93C1481.87 1114.28 1480.42 1096.87 1479.97 1091.72C1479.11 1081.74 1475.64 1067.22 1469.57 1048.14C1463.5 1029.07 1454.18 1009.12 1441.6 988.31C1429.03 967.498 1420.14 953.84 1414.94 947.337C1409.73 940.833 1399.55 930.427 1384.37 916.119C1369.2 901.811 1350.34 887.503 1327.79 873.195C1305.24 858.887 1282.26 846.747 1258.85 836.775C1235.44 826.803 1211.59 818.348 1187.31 811.411C1163.03 804.474 1050.3 784.313 1023.42 782.145C996.538 779.977 957.733 778.459 907.005 777.592C856.277 776.725 825.276 776.942 814.003 778.243C802.73 779.543 783.219 780.627 755.471 781.494C727.722 782.361 704.742 783.879 686.532 786.047C668.322 788.215 655.965 789.299 649.461 789.299C642.958 789.299 639.272 788.865 638.405 787.998C637.538 787.131 637.321 783.662 637.755 777.592C638.189 771.522 640.79 760.683 645.559 745.074C650.329 729.465 654.231 711.255 657.266 690.444C660.301 669.632 662.035 647.736 662.469 624.757C662.902 601.778 661.385 577.497 657.916 551.916C654.448 526.336 653.797 512.461 655.965 510.293C658.133 508.125 749.834 474.09 751.568 475.824C753.303 477.558 753.086 484.712 750.918 497.286C748.75 509.86 747.883 522.867 748.317 536.308C748.75 549.749 750.918 567.092 754.82 588.337C758.722 609.582 765.443 632.345 774.981 656.625C784.52 680.905 792.758 699.549 799.695 712.556C806.632 725.563 812.486 735.102 817.255 741.172C822.024 747.242 826.36 750.277 830.262 750.277C834.164 750.277 841.318 744.424 851.724 732.717C862.13 721.011 868.417 714.507 870.585 713.206C872.753 711.906 883.158 700.199 901.802 678.087C920.446 655.974 930.635 644.918 932.369 644.918C934.103 644.918 935.621 645.785 936.922 647.52C938.222 649.254 943.208 661.611 951.88 684.59C960.551 707.57 966.621 721.227 970.09 725.563C973.559 729.899 976.81 731.85 979.846 731.416C982.881 730.983 985.916 729.249 988.951 726.214C991.986 723.179 996.972 717.108 1003.91 708.003C1010.85 698.898 1024.07 685.891 1033.18 674.185C1042.28 662.478 1061.36 642.317 1069.6 631.911C1077.83 621.505 1086.5 608.281 1095.61 592.239C1104.72 576.197 1111 562.973 1114.47 552.567C1117.94 542.161 1120.32 531.755 1121.62 521.349C1122.93 510.944 1123.14 496.636 1122.27 478.426C1121.41 460.215 1119.67 445.907 1117.07 435.502C1114.47 425.096 1107.1 403.851 1094.96 371.766C1082.82 339.682 1075.02 316.485 1071.55 302.177C1068.08 287.869 1065.69 279.631 1064.39 277.464C1063.09 275.296 1061.57 274.212 1059.84 274.212C1058.11 274.212 1055.29 275.513 1051.39 278.114ZM220.873 514.195C202.663 518.098 186.837 522.217 173.396 526.552C159.956 530.888 146.731 536.525 133.724 543.462C120.717 550.399 110.962 556.035 104.458 560.371C97.9543 564.707 88.8493 572.511 77.1427 583.784C65.4362 595.057 55.8976 606.33 48.5268 617.603C41.156 628.876 35.086 640.799 30.3167 653.373C25.5473 665.947 22.5123 675.702 21.2116 682.639C19.9109 689.576 19.0437 699.765 18.6101 713.206C18.1766 726.647 19.0437 739.654 21.2116 752.228C23.3795 764.802 27.7152 780.627 34.2188 799.704C40.7224 818.782 50.6947 838.726 64.1355 859.538C77.5763 880.349 89.7164 896.175 100.556 907.014C111.395 917.854 121.584 927.175 131.123 934.98C140.661 942.784 190.999 977.667 210.577 988.454C228.209 998.169 237.466 1003.95 261.976 1015.28C291.899 1029.1 314.959 1037.95 331.434 1043.59C347.91 1049.23 375.442 1060.72 398.422 1067.65C409.782 1071.08 444.988 1081.21 481.969 1086.26C499.619 1088.67 528.256 1094.18 555.877 1095.12C587.454 1096.2 617.737 1092.45 629.3 1091.07C650.979 1088.47 671.14 1084.78 689.784 1080.01C708.428 1075.24 741.163 1063.32 754.17 1057.25C767.177 1051.18 775.415 1048.14 778.884 1048.14C782.352 1048.14 836.115 1120.51 836.115 1121.63C836.115 1122.93 835.682 1124.02 834.815 1124.89C833.948 1125.75 826.143 1127.05 811.402 1128.79C796.66 1130.52 778.45 1135.72 756.771 1144.4C735.093 1153.07 714.715 1163.91 695.637 1176.91C676.56 1189.92 659 1204.01 642.958 1219.19C626.916 1234.36 619.111 1244.12 619.545 1248.45C619.978 1252.79 621.713 1257.13 624.748 1261.46C627.783 1265.8 639.489 1273.17 659.867 1283.57C680.245 1293.98 696.288 1301.57 707.994 1306.34C719.701 1311.11 726.421 1314.36 728.155 1316.09C729.89 1317.83 729.456 1320.64 726.855 1324.55C724.253 1328.45 721.001 1331.27 717.099 1333C713.197 1334.74 709.945 1337.12 707.344 1340.16C704.742 1343.19 698.455 1347.96 688.483 1354.46C678.511 1360.97 672.224 1365.74 669.623 1368.77C667.021 1371.81 665.721 1374.62 665.721 1377.23C665.721 1379.83 667.455 1382.43 670.923 1385.03C674.392 1387.63 690.651 1395.87 719.701 1409.74C748.75 1423.62 770.646 1433.37 785.387 1439.01C800.129 1444.65 812.269 1448.55 821.807 1450.72C831.346 1452.88 843.053 1454.19 856.927 1454.62C870.801 1455.05 883.375 1454.19 894.648 1452.02C905.921 1449.85 918.061 1446.16 931.068 1440.96C944.076 1435.76 961.419 1426 983.097 1411.7C1004.78 1397.39 1020.6 1386.33 1030.57 1378.53C1040.55 1370.72 1050.95 1364 1061.79 1358.37C1072.63 1352.73 1078.48 1348.39 1079.35 1345.36C1080.22 1342.32 1079.35 1339.72 1076.75 1337.55C1074.15 1335.39 1062.88 1329.1 1042.93 1318.69C1022.99 1308.29 1010.41 1302.87 1005.21 1302.43C1000.01 1302 992.853 1304.17 983.748 1308.94C974.643 1313.71 962.719 1321.08 947.978 1331.05C933.236 1341.02 924.131 1347.74 920.663 1351.21C917.194 1354.68 906.571 1362.05 888.795 1373.32C871.018 1384.6 854.976 1393.05 840.668 1398.69C826.36 1404.32 810.968 1407.79 794.492 1409.09C778.016 1410.39 769.128 1410.61 767.827 1409.74C766.527 1408.88 766.31 1407.14 767.177 1404.54C768.044 1401.94 781.485 1391.53 807.5 1373.32C833.514 1355.11 862.997 1337.12 895.949 1319.34C928.9 1301.57 950.362 1290.51 960.335 1286.18C970.307 1281.84 977.894 1279.24 983.097 1278.37C988.3 1277.5 991.552 1276.2 992.853 1274.47C994.153 1272.73 994.587 1271 994.153 1269.27C993.72 1267.53 982.013 1260.59 959.034 1248.45C936.054 1236.31 921.963 1230.24 916.76 1230.24C911.557 1230.24 901.585 1232.41 886.844 1236.75C872.102 1241.08 857.794 1246.72 843.92 1253.66C830.045 1260.59 821.157 1265.58 817.255 1268.62C813.353 1271.65 804.898 1275.99 791.891 1281.62C778.884 1287.26 767.611 1290.73 758.072 1292.03C748.533 1293.33 739.862 1293.98 732.057 1293.98C724.253 1293.98 718.4 1293.33 714.498 1292.03C710.596 1290.73 709.078 1288.34 709.945 1284.87C710.812 1281.41 720.568 1271.22 739.211 1254.31C757.855 1237.4 774.114 1224.39 787.989 1215.29C801.863 1206.18 811.402 1200.76 816.605 1199.03C821.807 1197.29 826.794 1194.91 831.563 1191.87C836.332 1188.84 847.822 1184.72 866.032 1179.52C884.242 1174.31 898.767 1171.49 909.606 1171.06C920.446 1170.63 930.418 1171.28 939.523 1173.01C948.628 1174.75 954.698 1175.61 957.733 1175.61C960.768 1175.61 962.719 1175.18 963.586 1174.31C964.454 1173.45 964.887 1172.36 964.887 1171.06C964.887 1169.76 959.901 1165.42 949.929 1158.05C939.957 1150.68 928.467 1139.84 915.46 1125.54C902.452 1111.23 893.347 1099.3 888.144 1089.77C882.942 1080.23 878.823 1070.04 875.788 1059.2C872.753 1048.36 871.235 1038.39 871.235 1029.28C871.235 1020.18 872.536 1009.55 875.137 997.415C877.739 985.274 882.291 970.316 888.795 952.54C895.298 934.763 901.368 920.238 907.005 908.965C912.641 897.692 927.166 874.93 927.166 871.895C927.166 868.86 891.83 859.755 865.382 860.188C838.934 860.622 824.626 861.706 822.458 863.44C820.29 865.174 816.388 872.328 810.751 884.902C805.115 897.476 799.262 908.532 793.192 918.07C787.121 927.609 778.884 938.882 768.478 951.889C758.072 964.896 747.883 975.953 737.911 985.058C727.939 994.163 718.183 1001.53 708.644 1007.17C699.106 1012.81 686.099 1018.44 669.623 1024.08C653.147 1029.72 637.755 1034.05 623.447 1037.09C609.139 1040.12 596.565 1042.07 585.726 1042.94C574.887 1043.81 561.446 1044.02 545.404 1043.59C536.814 1043.36 505.226 1042.22 474.204 1036.66C447.291 1031.84 420.803 1022.75 410.128 1019.53C387.149 1012.59 364.169 1003.7 341.19 992.862C318.21 982.023 300 972.484 286.559 964.246C273.119 956.008 255.776 942.784 234.53 924.574C213.285 906.364 195.942 888.587 182.501 871.244C169.061 853.901 157.571 835.908 148.032 817.264C138.494 798.621 131.556 782.145 127.221 767.837C122.885 753.529 120.283 739.004 119.416 724.262C118.549 709.521 118.549 698.682 119.416 691.744C120.283 684.807 123.102 674.835 127.871 661.828C132.64 648.82 137.626 637.981 142.829 629.31C148.032 620.638 154.969 611.533 163.641 601.994C172.312 592.456 180.55 584.651 188.355 578.581C196.159 572.511 205.481 566.224 216.32 559.721C227.16 553.217 242.118 546.497 261.195 539.56C280.273 532.622 296.532 527.853 309.972 525.252C323.413 522.65 330.35 520.482 330.784 518.748C331.218 517.014 331.001 515.713 330.134 514.846C329.266 513.979 326.448 512.895 321.679 511.594C316.91 510.293 303.469 509.426 281.356 508.993C259.244 508.559 239.083 510.293 220.873 514.195ZM458.255 1247.15C458.472 1247.59 458.689 1248.02 458.905 1248.45C458.689 1248.02 458.472 1247.59 458.255 1247.15C458.038 1246.72 457.821 1246.29 457.605 1245.85C457.821 1246.29 458.038 1246.72 458.255 1247.15Z" fill="#000000" fill-rule="nonzero" opacity="1" stroke="none" vectornator:layerName="Curve 1"/>
<path d="M453.555 614.158C445.101 616.434 435.671 626.025 425.265 642.936C411.39 665.482 398.383 700.168 386.243 746.994C380.173 770.407 374.103 793.82 368.033 817.233C354.158 799.023 340.284 780.813 326.41 762.603C298.661 726.183 279.584 707.972 269.178 707.972C258.772 707.972 250.1 712.308 243.163 720.98C236.226 729.651 233.625 746.127 235.359 770.407C237.093 794.687 240.562 808.562 245.765 812.03C250.968 815.499 264.842 816.366 287.388 814.632C309.934 812.898 329.878 828.506 347.221 861.458C355.893 877.934 364.564 894.409 373.236 910.885C380.173 877.934 387.11 844.982 394.047 812.03C407.922 746.127 416.593 711.441 420.062 707.972C423.53 704.504 433.069 704.504 448.678 707.972C464.286 711.441 473.825 710.574 477.294 705.371C480.762 700.168 481.629 684.559 479.895 658.545C478.161 632.53 472.091 617.789 461.685 614.32C459.084 613.453 456.374 613.399 453.555 614.158ZM1148.47 1014.94C1140.66 1027.08 1132.86 1039.22 1125.05 1051.36C1109.45 1075.64 1098.17 1099.06 1091.24 1121.6C1084.3 1144.15 1080.83 1165.83 1080.83 1186.64C1080.83 1207.45 1084.3 1223.06 1091.24 1233.47C1098.17 1243.87 1107.71 1248.21 1119.85 1246.47C1131.99 1244.74 1141.53 1236.07 1148.47 1220.46C1155.4 1204.85 1158.87 1175.37 1158.87 1171.03C1153.67 1172.76 1148.47 1174.5 1143.26 1176.23C1132.86 1179.7 1124.19 1175.37 1117.25 1163.23C1110.31 1151.09 1107.71 1137.21 1109.45 1121.6C1111.18 1105.99 1118.98 1086.05 1132.86 1061.77C1146.73 1037.49 1149.33 1016.68 1148.47 1014.94Z" fill="#000000" fill-rule="nonzero" opacity="1" stroke="none" vectornator:layerName="Curve 2"/>
</g>
</g>
</svg>
